<svg width="29" height="19" viewBox="0 0 29 19" fill="none" xmlns="http://www.w3.org/2000/svg">
<path d="M6.36018 18.5622C9.03102 18.5622 11.2567 16.5244 11.6606 13.8503H12.9713C13.2681 14.4694 13.8946 14.8993 14.62 14.8993C15.6339 14.8993 16.45 14.0481 16.45 12.9991C16.45 12.5348 16.2852 12.1048 16.0131 11.7695L20.0606 7.25535L20.3738 8.08939C18.7417 9.04381 17.6371 10.8753 17.6371 12.9647C17.6371 16.0601 20.0441 18.5708 23.0199 18.5708C25.9793 18.5708 28.3781 16.0601 28.3781 12.9647C28.3781 9.86926 25.9793 7.36713 23.0199 7.36713C22.5666 7.36713 22.1214 7.42731 21.701 7.53909L19.3682 1.37404C19.2033 0.926927 18.9065 0.737762 18.3872 0.737762H15.9142C15.5103 0.737762 15.1805 1.0817 15.1805 1.50302C15.1805 1.91574 15.5103 2.25968 15.9142 2.25968H18.0987C18.1729 2.25968 18.1894 2.27688 18.2141 2.32847L19.533 5.83661L12.2047 6.92001L11.1248 4.8134H12.0316C12.4355 4.8134 12.757 4.47806 12.757 4.05674C12.757 3.63542 12.4273 3.29149 12.0316 3.29149H8.50345C8.10777 3.29149 7.77804 3.63542 7.77804 4.05674C7.77804 4.47806 8.09953 4.8134 8.50345 4.8134H9.55035L10.7044 7.12637L9.51738 8.43333C8.63534 7.76265 7.53898 7.36713 6.36018 7.36713C3.38434 7.36713 0.985535 9.86926 0.985535 12.9647C0.985535 16.0601 3.39259 18.5622 6.36018 18.5622ZM14.62 11.0988C14.5293 11.0988 14.4469 11.1074 14.3562 11.116L12.8807 8.23556L18.0822 7.47031L14.7601 11.0988C14.7107 11.0988 14.6695 11.0988 14.62 11.0988ZM11.7101 12.4316C11.6029 11.2966 11.1743 10.2562 10.5231 9.42214L11.3886 8.48492L13.1115 11.9243C13.0043 12.079 12.9301 12.251 12.8724 12.4316H11.7101ZM6.36018 17.0317C4.20043 17.0317 2.46933 15.2261 2.46933 12.9647C2.46933 10.7205 4.20868 8.90624 6.36018 8.90624C7.15154 8.90624 7.87696 9.14699 8.48696 9.55972L6.49208 11.7523C6.45086 11.7437 6.40964 11.7437 6.36018 11.7437C5.70896 11.7437 5.19788 12.2682 5.18963 12.9647C5.18139 13.644 5.70072 14.1857 6.36018 14.1857C6.67343 14.1857 6.96195 14.0567 7.16803 13.8503H10.1604C9.78117 15.6732 8.22318 17.0317 6.36018 17.0317ZM23.0199 17.0317C20.8602 17.0317 19.1209 15.2261 19.1209 12.9647C19.1209 11.5287 19.838 10.2648 20.9179 9.54252L21.9813 12.38C21.8989 12.552 21.8412 12.7497 21.8412 12.9647C21.8329 13.644 22.3522 14.1857 23.0199 14.1857C23.6712 14.1857 24.1823 13.644 24.1823 12.9647C24.1823 12.3886 23.8196 11.9157 23.3085 11.7781L22.2533 8.98362C22.5006 8.93203 22.7562 8.90624 23.0199 8.90624C25.1632 8.90624 26.9108 10.7291 26.9108 12.9647C26.9108 15.2175 25.1632 17.0317 23.0199 17.0317ZM7.75331 12.4316L9.49265 10.5485C9.87184 11.0816 10.1356 11.7265 10.2263 12.4316H7.75331ZM14.6282 13.6096C14.2903 13.6096 14.0265 13.3344 14.0265 13.0163C14.0265 12.6723 14.2985 12.38 14.6282 12.38C14.958 12.38 15.2135 12.6637 15.2135 13.0163C15.2135 13.343 14.958 13.6096 14.6282 13.6096Z" fill="white"/>
</svg>
