<svg width="10" height="17" viewBox="0 0 10 17" fill="none" xmlns="http://www.w3.org/2000/svg">
<path d="M0.140808 8.6543C0.140808 8.96191 0.255066 9.22559 0.50116 9.4541L7.33905 16.1514C7.53241 16.3447 7.7785 16.4502 8.06854 16.4502C8.64862 16.4502 9.11444 15.9932 9.11444 15.4043C9.11444 15.1143 8.99139 14.8594 8.79803 14.6572L2.6369 8.6543L8.79803 2.65137C8.99139 2.44922 9.11444 2.18555 9.11444 1.9043C9.11444 1.31543 8.64862 0.858398 8.06854 0.858398C7.7785 0.858398 7.53241 0.963867 7.33905 1.15723L0.50116 7.8457C0.255066 8.08301 0.140808 8.34668 0.140808 8.6543Z" fill="white"/>
</svg>
