<svg width="20" height="18" viewBox="0 0 20 18" fill="none" xmlns="http://www.w3.org/2000/svg">
<path d="M18.1719 2C17.1119 0.937205 15.7067 0.288538 14.2102 0.171168C12.7138 0.0537975 11.2247 0.475464 10.0119 1.36C8.73954 0.413635 7.15588 -0.0154912 5.57981 0.159035C4.00374 0.333561 2.55233 1.09878 1.51786 2.30058C0.483394 3.50239 -0.0572902 5.05152 0.00468859 6.63601C0.0666674 8.2205 0.726705 9.72267 1.85189 10.84L8.06189 17.06C8.58191 17.5718 9.28227 17.8586 10.0119 17.8586C10.7415 17.8586 11.4419 17.5718 11.9619 17.06L18.1719 10.84C19.3395 9.66526 19.9948 8.07627 19.9948 6.42C19.9948 4.76372 19.3395 3.17473 18.1719 2ZM16.7619 9.46L10.5519 15.67C10.4812 15.7414 10.3971 15.798 10.3044 15.8366C10.2117 15.8753 10.1123 15.8952 10.0119 15.8952C9.91146 15.8952 9.81203 15.8753 9.71935 15.8366C9.62666 15.798 9.54255 15.7414 9.47189 15.67L3.26189 9.43C2.47765 8.62834 2.0385 7.55146 2.0385 6.43C2.0385 5.30853 2.47765 4.23165 3.26189 3.43C4.06104 2.64099 5.13886 2.19857 6.26189 2.19857C7.38491 2.19857 8.46273 2.64099 9.26189 3.43C9.35485 3.52373 9.46545 3.59812 9.58731 3.64889C9.70917 3.69966 9.83988 3.7258 9.97189 3.7258C10.1039 3.7258 10.2346 3.69966 10.3565 3.64889C10.4783 3.59812 10.5889 3.52373 10.6819 3.43C11.481 2.64099 12.5589 2.19857 13.6819 2.19857C14.8049 2.19857 15.8827 2.64099 16.6819 3.43C17.4769 4.22115 17.9305 5.29219 17.9454 6.41368C17.9604 7.53518 17.5355 8.61793 16.7619 9.43V9.46Z" fill="white"/>
</svg>
